<svg id="Line_copy" enable-background="new 0 0 128 128" height="512" viewBox="0 0 128 128" width="512" xmlns="http://www.w3.org/2000/svg" xmlns:xlink="http://www.w3.org/1999/xlink"><linearGradient id="SVGID_1_" gradientUnits="userSpaceOnUse" x1="70.6" x2="71.725" y1="44.679" y2="32.554"><stop offset="0" stop-color="#50a7d1"/><stop offset="1" stop-color="#198cc3"/></linearGradient><linearGradient id="lg1"><stop offset="0" stop-color="#d0d3d3"/><stop offset="1" stop-color="#aaaeb1"/></linearGradient><linearGradient id="SVGID_2_" gradientUnits="userSpaceOnUse" x1="1.625" x2="13.5" xlink:href="#lg1" y1="105.361" y2="110.736"/><linearGradient id="SVGID_3_" gradientUnits="userSpaceOnUse" x1="11.487" x2="23.362" xlink:href="#lg1" y1="83.573" y2="88.948"/><linearGradient id="lg2"><stop offset="0" stop-color="#f0f1f1"/><stop offset="1" stop-color="#e5e6e7"/></linearGradient><linearGradient id="SVGID_4_" gradientUnits="userSpaceOnUse" x1="71.961" x2="68.461" xlink:href="#lg2" y1="62.038" y2="71.538"/><linearGradient id="SVGID_5_" gradientUnits="userSpaceOnUse" x1="66.305" x2="67.18" xlink:href="#lg1" y1="54.903" y2="47.653"/><linearGradient id="SVGID_6_" gradientUnits="userSpaceOnUse" x1="94.904" x2="92.738" y1="65.75" y2="53.583"><stop offset="0" stop-color="#ffd385"/><stop offset=".8238" stop-color="#ff9b34"/></linearGradient><linearGradient id="SVGID_7_" gradientUnits="userSpaceOnUse" x1="-9.343" x2="-3.218" xlink:href="#lg2" y1="33.799" y2="34.299"/><linearGradient id="SVGID_8_" gradientUnits="userSpaceOnUse" x1="49.813" x2="63.938" xlink:href="#lg1" y1="35.771" y2="47.896"/><linearGradient id="SVGID_9_" gradientUnits="userSpaceOnUse" x1="37.904" x2="35.779" xlink:href="#lg1" y1="42.682" y2="36.932"/><linearGradient id="SVGID_10_" gradientUnits="userSpaceOnUse" x1="5.475" x2="-8.442" xlink:href="#lg1" y1="53.592" y2="52.925"/><linearGradient id="SVGID_11_" gradientUnits="userSpaceOnUse" x1="-19.667" x2="-16.25" xlink:href="#lg1" y1="54" y2="54"/><linearGradient id="lg3"><stop offset=".0399" stop-color="#fb9e4b"/><stop offset="1" stop-color="#f58641"/></linearGradient><linearGradient id="SVGID_12_" gradientUnits="userSpaceOnUse" x1="145.295" x2="169.045" xlink:href="#lg3" y1="93.738" y2="95.113"/><linearGradient id="SVGID_13_" gradientUnits="userSpaceOnUse" x1="145.756" x2="169.506" xlink:href="#lg3" y1="85.765" y2="87.14"/><g><g><path d="m112 63c-2.448 0-4.637 1.103-6.104 2.836-1.575-2.557-3.713-2.101-4.896-1.836 0-3.314-2.686-6-6-6-1.122 0-2.102.464-3 1-4.083-6.062-9-1.485-9 1-.824-1.047-2.564-2-4-2-1.937 0-3.347 1.337-4 3-2.531-1.969-5.188-.5-6 0 0-2.209-1.791-4-4-4-1.196 0-2.267.168-3 1-.001-.037-.002-.043-.002-.038-.021-3.296-2.697-5.962-5.998-5.962-3.123 0-5.716 1.951-6 5 0 0-3.922-4.484-8 0-8-3.167-13.165 1.893-14 6-.376-.117-.586 0-1 0-1.904 0-3.596 1.218-4 3-.36-.067-.621 0-1 0-3.314 0-6 2-6 7h104v-2c0-4.418-3.582-8-8-8z" fill="url(#SVGID_1_)"/><g><path d="m35 126c-1.657 0-3-1.343-3-3v-7h6v7c0 1.657-1.343 3-3 3z" fill="url(#SVGID_2_)"/><path d="m93 126c-1.657 0-3-1.343-3-3v-7h6v7c0 1.657-1.343 3-3 3z" fill="url(#SVGID_3_)"/></g><path d="m64 78h-57c0 29 15.431 40 32 40h25 25c16.569 0 32-11 32-40z" fill="url(#SVGID_4_)"/><path d="m122 78h-116c-2.209 0-4-1.791-4-4 0-2.209 1.791-4 4-4h116c2.209 0 4 1.791 4 4 0 2.209-1.791 4-4 4z" fill="url(#SVGID_5_)"/><path d="m106 99h-16c-1.657 0-3-1.343-3-3v-26h22v26c0 1.657-1.343 3-3 3z" fill="url(#SVGID_6_)"/><g><path d="m12 70h-4v-62c0-3.309 2.691-6 6-6h13c3.309 0 6 2.691 6 6v6h-4v-6c0-1.103-.897-2-2-2h-13c-1.103 0-2 .897-2 2z" fill="url(#SVGID_7_)"/></g><path d="m41 22h-20v-2c0-3.314 2.686-6 6-6h8c3.314 0 6 2.686 6 6z" fill="url(#SVGID_8_)"/><path d="m42 26h-22c-1.105 0-2-.895-2-2 0-1.105.895-2 2-2h22c1.105 0 2 .895 2 2 0 1.105-.895 2-2 2z" fill="url(#SVGID_9_)"/><path d="m12 52h4v4h-4z" fill="url(#SVGID_10_)"/><path d="m19 58-3-2v-4l3-2c1 0 3 .445 3 2v4c0 1.555-2 2-3 2z" fill="url(#SVGID_11_)"/><path d="m87 89h22v4h-22z" fill="url(#SVGID_12_)"/><path d="m87 81h22v4h-22z" fill="url(#SVGID_13_)"/></g><g fill="#3a322b"><path d="m60.844 62.101c-1.834.462-2.664 2.299-2.752 2.507-.217.508.021 1.096.528 1.312.128.055.261.08.392.08.389 0 .758-.228.92-.608.005-.011.516-1.128 1.4-1.351.573-.143 1.263.105 2.055.74.434.346 1.061.273 1.406-.156.345-.432.274-1.061-.156-1.406-1.308-1.047-2.586-1.423-3.793-1.118z"/><path d="m39.086 64c-1.589 0-2.7 1.199-2.821 1.336-.367.412-.33 1.045.083 1.411.411.367 1.045.33 1.411-.083.125-.14.716-.664 1.327-.664.396 0 .781.218 1.179.664.197.223.471.336.747.336.236 0 .474-.083.664-.253.413-.366.45-.999.083-1.411-.981-1.105-1.995-1.336-2.673-1.336z"/><path d="m88.759 65.664c.125-.14.716-.664 1.327-.664.396 0 .781.218 1.179.664.197.223.471.336.747.336.236 0 .474-.083.664-.253.413-.366.45-.999.083-1.411-.981-1.105-1.995-1.336-2.673-1.336-1.589 0-2.7 1.199-2.821 1.336-.367.412-.33 1.045.083 1.411.412.367 1.044.33 1.411-.083z"/><path d="m122.012 69h-1.233c-.919-4.047-4.541-7-8.767-7-2.235 0-4.366.828-6.009 2.304-1.354-1.468-2.924-1.606-4.09-1.479-.56-3.303-3.441-5.825-6.901-5.825-1.03 0-1.945.321-2.711.7-2.419-3.062-4.93-2.895-6.266-2.484-1.619.494-2.882 1.713-3.533 2.979-1.059-.725-2.366-1.195-3.49-1.195-1.796 0-3.404.961-4.401 2.572-1.47-.725-3.146-.753-4.83-.078-.641-2.023-2.537-3.494-4.769-3.494-.683 0-1.467.05-2.209.312-.76-3.044-3.523-5.312-6.791-5.312-3.13 0-5.635 1.652-6.599 4.183-.852-.58-2.054-1.162-3.464-1.176-.018 0-.035 0-.052 0-1.481 0-2.873.614-4.146 1.828-4.429-1.56-7.694-.643-9.687.437-2.301 1.247-4.089 3.385-4.821 5.711-.068.008-.142.017-.231.017-2.088 0-3.951 1.217-4.717 2.987-.088.006-.18.013-.283.013-2.964 0-5.2 1.456-6.267 4h-2.733v-12h2.697l2.748 1.832c.164.109.357.168.555.168 1.607 0 4-.799 4-3v-4c0-2.201-2.393-3-4-3-.197 0-.391.059-.555.168l-2.748 1.832h-2.697v-43c0-.552.448-1 1-1h13c.552 0 1 .448 1 1v5h-1c-3.859 0-7 3.141-7 7v1c-1.654 0-3 1.346-3 3s1.346 3 3 3h22c1.654 0 3-1.346 3-3s-1.346-3-3-3v-1c0-3.859-3.141-7-7-7h-1v-5c0-3.859-3.141-7-7-7h-13c-3.859 0-7 3.141-7 7v61h-1c-2.757 0-5 2.243-5 5s2.243 5 5 5h.021c.34 28.109 14.7 36.59 24.979 39.041v4.959c0 2.206 1.794 4 4 4s4-1.794 4-4v-4h50v4c0 2.206 1.794 4 4 4s4-1.794 4-4v-4.959c10.279-2.451 24.639-10.932 24.979-39.041h.021c2.757 0 5-2.243 5-5s-2.243-5-5-5zm-100-2c.157 0 .297-.009.431-.019.185-.014.278-.02.386.002.528.095 1.04-.238 1.159-.763.29-1.286 1.563-2.22 3.024-2.22.195 0 .356-.019.506-.036.163-.021.167-.019.196-.009.271.084.564.051.807-.095.244-.144.415-.384.471-.661.415-2.039 1.996-4.068 4.027-5.169 1.709-.927 4.595-1.694 8.625-.101.389.154.828.052 1.108-.257 1.005-1.105 2.063-1.666 3.146-1.666h.019c1.863.011 3.33 1.638 3.342 1.651.263.301.681.417 1.061.293.381-.123.651-.46.688-.858.224-2.409 2.282-4.092 5.004-4.092 2.738 0 4.98 2.229 4.998 4.969 0 .028.002.056.004.084h-.001c.021.405.287.759.671.892.383.134.811.022 1.079-.283.413-.471 1.064-.662 2.249-.662 1.654 0 3 1.346 3 3 0 .362.196.696.512.873.317.177.703.168 1.013-.021 1.259-.774 3.124-1.414 4.861-.062.249.194.576.259.879.175.305-.083.551-.305.666-.599.58-1.482 1.728-2.366 3.069-2.366 1.16 0 2.599.837 3.214 1.618.264.336.71.466 1.113.327.402-.14.673-.52.673-.945 0-.826 1.04-2.393 2.608-2.872 1.587-.483 3.164.356 4.562 2.431.297.441.887.572 1.342.3.711-.425 1.562-.859 2.488-.859 2.757 0 5 2.243 5 5 0 .304.138.591.375.78s.551.264.844.195c1.377-.308 2.706-.435 3.825 1.385.168.272.457.448.776.473.319.023.631-.106.839-.352 1.334-1.577 3.281-2.481 5.341-2.481 3.13 0 5.83 2.084 6.698 5h-9.698-22-69.02c1.03-1.601 2.682-2 4.02-2zm66 17v-2h20v2zm20 2v2h-20v-2zm-20 4h20v2h-20zm20-10h-20v-9h20zm-20 14h20v2c0 1.103-.897 2-2 2h-16c-1.103 0-2-.897-2-2zm-68.722-42.983c.636.065 1.722.339 1.722.983v4c0 .645-1.086.918-1.722.983l-2.278-1.519v-2.93zm-4.278 1.983v2h-2v-2zm28-29c0 .552-.448 1-1 1h-22c-.552 0-1-.448-1-1s.448-1 1-1h22c.551 0 1 .448 1 1zm-3-4v1h-18v-1c0-2.757 2.243-5 5-5h8c2.757 0 5 2.243 5 5zm-31-12c0-2.757 2.243-5 5-5h13c2.757 0 5 2.243 5 5v5h-2v-5c0-1.654-1.346-3-3-3h-13c-1.654 0-3 1.346-3 3v61h-2zm-6 66c0-1.654 1.346-3 3-3h80v6h-79-1c-1.655 0-3-1.346-3-3zm34 49c0 1.103-.897 2-2 2s-2-.897-2-2v-4.539c1.484.263 2.833.403 4 .474zm58 0c0 1.103-.897 2-2 2s-2-.897-2-2v-4.065c1.167-.071 2.516-.211 4-.474zm1.015-6.702c-.005 0-.01-.003-.015-.003-.144 0-.279.033-.402.087-2.085.406-4.284.618-6.598.618h-50c-2.313 0-4.513-.212-6.598-.618-.124-.055-.259-.087-.402-.087-.005 0-.01.003-.015.003-14.915-3.12-23.706-16.552-23.978-37.298h77.993v17c0 2.206 1.794 4 4 4h16c2.206 0 4-1.794 4-4v-17h9.993c-.272 20.746-9.063 34.178-23.978 37.298zm25.985-39.298h-1-11v-6h12c1.654 0 3 1.346 3 3s-1.346 3-3 3z"/></g></g></svg>