<?xml version="1.0" encoding="UTF-8"?>
<!DOCTYPE svg PUBLIC "-//W3C//DTD SVG 1.1//EN" "http://www.w3.org/Graphics/SVG/1.1/DTD/svg11.dtd">
<!-- Creator: CorelDRAW -->
<svg xmlns="http://www.w3.org/2000/svg" xml:space="preserve" width="195.194mm" height="54.6738mm" version="1.1" style="shape-rendering:geometricPrecision; text-rendering:geometricPrecision; image-rendering:optimizeQuality; fill-rule:evenodd; clip-rule:evenodd"
viewBox="0 0 19519.44 5467.38"
 xmlns:xlink="http://www.w3.org/1999/xlink"
 xmlns:xodm="http://www.corel.com/coreldraw/odm/2003">
 <defs>
  <style type="text/css">
   <![CDATA[
    .fil0 {fill:#fe634e}
   ]]>
  </style>
 </defs>
 <g id="Camada_x0020_1">
  <metadata id="CorelCorpID_0Corel-Layer"/>
  <path class="fil0" d="M4058.87 1191.32l-1386.97 1386.97c-45.1,45.1 -45.1,124.03 0,169.14 45.11,45.1 124.04,45.1 169.15,0l1386.96 -1386.97 417.22 56.38 766.77 -766.77 -563.8 -78.94 -78.94 -563.8 -778.05 778.05 67.66 405.94z"/>
  <path class="fil0" d="M4735.44 1642.37c169.14,315.73 270.62,676.57 270.62,1071.23 0,1262.93 -1026.13,2289.05 -2289.05,2289.05 -1274.21,0 -2300.33,-1026.12 -2300.33,-2289.05 0,-1262.93 1026.12,-2289.06 2289.05,-2289.06 383.39,0 744.23,90.21 1071.23,259.35l304.46 -304.45c-405.94,-236.8 -879.54,-372.11 -1375.69,-372.11 -1488.45,0 -2706.27,1217.82 -2706.27,2706.27 0,1488.45 1217.82,2706.27 2706.27,2706.27 1488.45,0 2706.27,-1217.82 2706.27,-2706.27 0,-496.15 -135.31,-969.75 -372.11,-1375.69l-304.45 304.46z"/>
  <path class="fil0" d="M3765.69 1168.77c-304.46,-214.25 -665.29,-327.01 -1059.96,-327.01 -1037.4,0 -1871.84,834.43 -1871.84,1871.84 0,1037.4 834.44,1871.84 1871.84,1871.84 1037.41,0 1871.84,-834.44 1871.84,-1871.84 0,-394.66 -124.04,-755.5 -327.01,-1059.96l-304.45 304.46c135.31,225.52 214.24,484.87 214.24,755.5 0,800.6 -654.01,1454.62 -1454.62,1454.62 -800.6,0 -1454.62,-654.02 -1454.62,-1454.62 0,-800.61 654.02,-1454.62 1454.62,-1454.62 281.91,0 541.26,78.93 755.5,214.24l304.46 -304.45z"/>
  <path class="fil0" d="M2705.73 2093.41c45.11,0 90.21,0 124.04,11.28l327.01 -327.01c-135.32,-67.66 -293.18,-101.49 -451.05,-101.49 -575.08,0 -1037.4,462.33 -1037.4,1037.41 0,575.08 462.32,1037.4 1037.4,1037.4 575.08,0 1037.41,-462.32 1037.41,-1037.4 0,-157.87 -33.83,-315.73 -101.49,-451.05l-327.01 327.01c11.28,45.11 11.28,78.93 11.28,124.04 0,349.56 -281.9,620.19 -620.19,620.19 -349.56,0 -620.18,-281.91 -620.18,-620.19 0,-349.56 270.62,-620.19 620.18,-620.19z"/>
  <path class="fil0" d="M6827.77 614.37l0 645.38 572.83 0c159.55,0 285.08,-21.83 365.73,-77.93 71.01,-49.39 110.13,-133.94 110.13,-266.08 0,-96.26 -26.92,-169.78 -89.26,-216.71 -73.45,-55.27 -197.14,-84.66 -382.73,-84.66l-576.7 0zm-587.85 2356.75l0 -2890.3 1331.31 0c274.97,0 488.89,83.07 638.93,216.85 168.57,150.3 254.17,361.87 254.17,590.91 0,119.83 -25.16,267.99 -113.38,405.83 -36.32,56.75 -83.15,111.3 -143.05,160.75 187.81,102.39 388.28,287.17 388.28,693.8 0,263.33 -102.63,505.9 -300.92,678.18 -177.4,154.14 -429.81,249.82 -751.18,249.82l-1304.16 0 0 -105.84zm587.85 -1193.32l0 765.59 696.92 0c165.33,0 287.34,-38.05 366.29,-106.1 78.09,-67.29 117.34,-169.03 117.34,-296.08 0,-149.84 -63.79,-238.38 -155.88,-288.9 -105.79,-58.03 -251.21,-74.51 -389.81,-74.51l-634.86 0zm3939 -1696.98l482.01 0 0 1913.01c0,329.4 -110.43,633.03 -339.5,847.83 -203.53,190.85 -497.67,308.98 -887.11,308.98 -376.27,0 -655.66,-114.48 -848.37,-294.63 -224.54,-209.89 -327.82,-505.41 -327.82,-811.76l0 -1963.43 587.85 0 0 1858.73c0,522.01 313.19,665.9 599.97,665.9 168.98,0 347.96,-41.87 468.89,-167.91 95.25,-99.28 158.24,-254.97 158.24,-490.24l0 -1866.48 105.84 0zm3005.5 1026.06l-453.76 0 -4.56 -101.29c-7.08,-157.13 -67.09,-265.1 -153.54,-336 -114.11,-93.59 -277.53,-128.9 -431.34,-128.9 -123.33,0 -295.18,19.04 -409.22,106.66 -71.02,54.55 -120.94,141.05 -120.94,276.14 0,83.03 26.91,136.12 66.94,170.83 46.02,39.91 113.36,62.97 181.24,79.13l-0.04 0.18 794.63 182.1c212.88,50.35 399.27,143.95 529.34,297.17 115.9,136.51 184.65,316.6 184.65,550.36 0,742.18 -672.25,947.38 -1195.57,947.38 -273.21,0 -465.76,-42.11 -607.35,-99.48 -145.14,-58.81 -235.72,-133.14 -304.69,-195.63l-0.2 0.23c-132.53,-119.49 -212.28,-245.72 -259.2,-379.28 -46.03,-131.09 -59.05,-265.1 -59.05,-405.08l0 -105.84 564.59 0 0 105.84c0,186.77 64.65,313.31 161.69,395.66 130.21,110.48 321.86,150.01 500.32,150.01 145.63,0 348.32,-20.92 484.52,-108.58 81.42,-52.4 138.72,-132.85 138.72,-254.82 0,-111.2 -23.17,-182.37 -85.38,-232.34 -76.44,-61.4 -212.56,-106.48 -426.51,-157.24l0.04 -0.18 -569.7 -131.67c-100.09,-23.42 -263.56,-70.7 -405.96,-181.75 -148.05,-115.47 -269.25,-294.9 -269.25,-576.59 0,-262.83 93.68,-524.11 300.44,-709.94 173.63,-156.05 424.63,-256.83 763.27,-256.83 525.14,0 818.75,162.98 984.42,368.84 166.91,207.41 198.37,451.92 206.87,620.11l5.6 110.8 -111.02 0zm2873.66 23.29l-449.91 0 -17.98 -83.93c-37.79,-176.39 -119.63,-290.97 -218.35,-364.16 -140.15,-103.9 -319.32,-129.75 -457.8,-129.75 -232.16,0 -440.21,88.61 -585.12,264.35 -136.78,165.89 -220.39,410.95 -220.39,735.06 0,327.8 59.85,612.26 210.42,801.43 125.7,157.92 320.98,252.28 606.72,252.28 123.63,0 299.89,-34.22 445.61,-174.25 105.94,-101.8 197.5,-260.56 245.64,-504.16l16.91 -85.58 573.87 0 -17.88 121.14c-83.53,565.97 -359,863.7 -642.24,1020.17 -280.99,155.24 -567.3,167.87 -680.07,167.87 -372.34,0 -741.91,-132.7 -1003.09,-441.59 -216.12,-255.58 -355.38,-629.64 -355.38,-1145.68 0,-460.5 135.16,-851.55 382.07,-1127.21 243.32,-271.64 591.64,-429.03 1022.93,-429.03 358.08,0 638.42,104.68 843.02,267.66 240.01,191.19 373.81,461.39 406.03,737.55l13.74 117.83 -118.75 0zm1960.37 1136.27l-967.27 0 -290.86 810.52 -614.41 0c375.6,-998.7 751.22,-1997.39 1126.68,-2996.14l573.51 0c361.76,998.67 723.32,1997.42 1084.96,2996.14l-637.27 0 -275.34 -810.52zm-774.09 -545.21l567.18 0 -272.04 -810.99 -295.14 810.99z"/>
  <path class="fil0" d="M6249.53 5427.79l0 -1765.94 717.58 0c461.13,0 744.71,349.25 744.71,858.37 0,395.98 -172.61,907.57 -754.57,907.57l-707.72 0 0 0zm239.19 -1561.8l0 1357.66 463.6 0c310.71,0 512.91,-243.5 512.91,-688.67 0,-445.18 -204.67,-668.99 -530.17,-668.99l-446.34 0 0 0zm2860.48 1350.28l0 211.52 -1306.94 0 0 -1765.94 1289.68 0 0 211.51 -1050.48 0 0 541.1 969.11 0 0 211.52 -969.11 0 0 590.29 1067.74 0 0 0zm2687.87 211.52l-231.8 0 0 -1042.84c0,-51.65 4.94,-275.47 4.94,-440.26l-4.94 0 -498.12 1483.1 -236.73 0 -498.11 -1480.64 -4.93 0c0,162.33 4.93,386.15 4.93,437.8l0 1042.84 -231.8 0 0 -1765.94 342.76 0 505.52 1492.93 4.93 0 503.05 -1492.93 340.3 0 0 1765.94 0 0zm1753.28 -882.97c0,-415.66 -231.8,-718.19 -616.48,-718.19 -384.69,0 -616.49,302.53 -616.49,718.19 0,415.66 231.8,718.18 616.49,718.18 384.68,0 616.48,-302.52 616.48,-718.18zm246.59 0c0,381.22 -202.21,929.7 -863.07,929.7 -660.88,0 -863.08,-548.48 -863.08,-929.7 0,-381.23 202.2,-929.7 863.08,-929.7 660.86,0 863.07,548.47 863.07,929.7zm130.69 -671.46l0 -211.51 1437.64 0 0 211.51 -599.22 0 0 1554.43 -239.19 0 0 -1554.43 -599.23 0 0 0zm2991.18 1342.91l0 211.52 -1306.94 0 0 -1765.94 1289.68 0 0 211.51 -1050.49 0 0 541.1 969.11 0 0 211.52 -969.11 0 0 590.29 1067.75 0 0 0zm589.36 -1554.42l0 1765.94 -239.2 0 0 -1765.94 239.2 0 0 0zm1701.49 516.5l-224.4 0c-12.33,-273.01 -239.19,-359.09 -438.93,-359.09 -150.42,0 -404.41,41.81 -404.41,309.9 0,150.03 106.03,199.22 209.6,223.81l505.51 115.6c229.34,54.11 401.95,191.84 401.95,472.23 0,418.12 -389.62,533.72 -692.93,533.72 -327.96,0 -456.19,-98.38 -535.1,-169.71 -150.43,-135.27 -180.02,-282.85 -180.02,-447.63l224.4 0c0,319.73 261.39,413.2 488.26,413.2 172.61,0 463.59,-44.28 463.59,-297.61 0,-184.46 -86.31,-243.49 -377.29,-312.36l-362.49 -83.62c-115.9,-27.06 -377.28,-108.22 -377.28,-415.66 0,-275.47 180.01,-546.01 609.08,-546.01 618.95,0 680.6,368.92 690.46,563.23z"/>
  <polygon class="fil0" points="16415.7,3309.9 16330.71,3588.48 16477.97,3593.31 16596.17,3329.1 "/>
 </g>
</svg>
